<?xml version="1.0" encoding="UTF-8" standalone="no"?>
<!-- Created with Inkscape (http://www.inkscape.org/) -->

<svg
   width="21.464821mm"
   height="27.535788mm"
   viewBox="0 0 21.464821 27.535788"
   version="1.1"
   id="svg1"
   xml:space="preserve"
   xmlns="http://www.w3.org/2000/svg"
   xmlns:svg="http://www.w3.org/2000/svg"><defs
     id="defs1" /><g
     id="layer1"
     transform="translate(-20.723252,-244.57649)"><path
       style="opacity:1;fill:#2ec4ef;fill-opacity:1;stroke:#000000;stroke-width:2.161;stroke-linecap:square;stroke-linejoin:bevel;stroke-dasharray:none;stroke-opacity:0.992105;paint-order:fill markers stroke"
       d="m 26.639123,245.73227 c -0.945423,0.10108 -2.22557,1.08783 -3.031497,1.58802 -3.568644,3.67268 -1.275151,8.86214 1.703344,14.31279 3.114964,5.70039 8.168468,10.6348 12.547948,9.12452 1.296851,-0.47714 4.093598,-1.8044 3.024689,-3.47038 -0.343061,-0.21419 -2.26037,-3.31942 -3.159541,-4.73821 -1.131505,-1.25707 -2.102893,-0.0928 -3.36138,0.62475 -0.688673,0.40387 -0.841028,0.67191 -1.627143,0.0597 -1.905923,-2.44428 -3.480727,-5.04598 -4.683933,-7.86404 -0.03925,-0.52964 -0.121294,-0.71898 1.757057,-1.67867 1.029961,-0.57883 2.402614,-1.39486 0.853717,-3.00332 -1.080392,-1.71053 -1.569048,-2.75021 -2.362166,-4.16541 -0.313892,-0.56009 -1.088982,-1.05575 -1.661095,-0.7898 z"
       id="path1" /></g></svg>
